{"title":"The Raid 2 (2014) BDRip 720p Dual Audio 5.1 Ch [Hindi-Eng] YsB T","uid":10914395,"size":1530899941,"categoryP":"video","categoryS":"hd___movies","magnet":"?xt=urn:btih:84d5d2a88648ba80a818e26b4965d2396e731646&amp;dn=The+Raid+2+%282014%29+BDRip+720p+Dual+Audio+5.1+Ch+%5BHindi-Eng%5D+YsB+T&amp;tr=udp%3A%2F%2Ftracker.openbittorrent.com%3A80&amp;tr=udp%3A%2F%2Fopen.demonii.com%3A1337&amp;tr=udp%3A%2F%2Ftracker.coppersurfer.tk%3A6969&amp;tr=udp%3A%2F%2Fexodus.desync.com%3A6969","seeders":1,"leechers":0,"uploader":"Dj_YsB","files":7,"time":1409292442,"description":"The Raid 2 (2014) BDRip 720p Dual Audio 5.1 Ch [Hindi-Eng] YsB TeaM FL\n &lt;a href=&quot;\nhttp://imgur.com/qsZKihf&quot; rel=&quot;nofollow&quot; target=&quot;_NEW&quot;&gt;\nhttp://imgur.com/qsZKihf&lt;/a&gt;\n\nInfo:\nGeneral\nComplete name                            : The Raid 2 (2014) BDRip 720p Dual Audio 5.1 Ch [Hindi-Eng] YsB TeaM FL.mkv\nFormat                                   : Matroska\nFormat version                           : Version 4 / Version 2\nFile size                                : 1.41 GiB\nDuration                                 : 2h 30mn\nOverall bit rate                         : 1 346 Kbps\nMovie name                               : The Raid 2 (2014) BDRip 720p Dual Audio 5.1 Ch [Hindi-Eng] YsB TeaM FL\n\nVideo\nID                                       : 1\nFormat                                   : AVC\nDuration                                 : 2h 30mn\nBit rate                                 : 1 024 Kbps\nWidth                                    : 1 280 pixels\nHeight                                   : 528 pixels\nFrame rate                               : 23.976 fps\nStream size                              : 1.05 GiB (74%)\nTitle                                    : YsB TeaM FL\n\nAudio #1\nID                                       : 2\nFormat                                   : AC-3\nDuration                                 : 2h 30mn\nBit rate                                 : 192 Kbps\nChannel(s)                               : 6 channels\nChannel positions                        : Front: L C R, Side: L R, LFE\nSampling rate                            : 48.0 KHz\nStream size                              : 207 MiB (14%)\nTitle                                    : YsB TeaM FL\nLanguage                                 : Hindi\n\nAudio #2\nID                                       : 3\nFormat                                   : AC-3\nDuration                                 : 2h 30mn\nBit rate                                 : 192 Kbps\nChannel(s)                               : 6 channels\nChannel positions                        : Front: L C R, Side: L R, LFE\nSampling rate                            : 48.0 KHz\nStream size                              : 207 MiB (14%)\nTitle                                    : YsB TeaM FL\nLanguage                                 : English\n\nText #1\nID                                       : 4\nFormat                                   : UTF-8\nCodec ID                                 : S_TEXT/UTF8\nCodec ID/Info                            : UTF-8 Plain Text\nTitle                                    : YsB TeaM FL [Forced]\nLanguage                                 : English\nDefault                                  : No\nForced                                   : No\n\nText #2\nID                                       : 5\nFormat                                   : UTF-8\nCodec ID                                 : S_TEXT/UTF8\nCodec ID/Info                            : UTF-8 Plain Text\nTitle                                    : YsB TeaM FL [Full]\nLanguage                                 : English\nDefault                                  : No\nForced                                   : No\n\nText #3\nID                                       : 6\nFormat                                   : UTF-8\nCodec ID                                 : S_TEXT/UTF8\nCodec ID/Info                            : UTF-8 Plain Text\nTitle                                    : YsB TeaM FL [SDH]\nLanguage                                 : English\nDefault                                  : No\nForced                                   : No\n\nMenu\n00:00:00.000                             : en:00:00:00.000\n00:08:02.315                             : en:00:08:02.315\n00:14:03.217                             : en:00:14:03.217\n00:21:08.893                             : en:00:21:08.893\n00:31:45.487                             : en:00:31:45.487\n00:42:22.123                             : en:00:42:22.123\n00:50:55.177                             : en:00:50:55.177\n01:01:58.423                             : en:01:01:58.423\n01:11:49.764                             : en:01:11:49.764\n01:24:47.165                             : en:01:24:47.165\n01:36:31.995                             : en:01:36:31.995\n01:44:18.752                             : en:01:44:18.752\n01:48:31.714                             : en:01:48:31.714\n01:57:20.283                             : en:01:57:20.283\n02:05:59.093                             : en:02:05:59.093\n02:20:02.894                             : en:02:20:02.894\n\nScreenShot: &lt;a href=&quot;\nhttp://i.imgur.com/9tbgMr4.jpg&quot; rel=&quot;nofollow&quot; target=&quot;_NEW&quot;&gt;\nhttp://i.imgur.com/9tbgMr4.jpg&lt;/a&gt; &lt;a href=&quot;\nhttp://i.imgur.com/tBu1Jtq.jpg&quot; rel=&quot;nofollow&quot; target=&quot;_NEW&quot;&gt;\nhttp://i.imgur.com/tBu1Jtq.jpg&lt;/a&gt; &lt;a href=&quot;\nhttp://i.imgur.com/XJD62Q9.jpg&quot; rel=&quot;nofollow&quot; target=&quot;_NEW&quot;&gt;\nhttp://i.imgur.com/XJD62Q9.jpg&lt;/a&gt;\n\n\nThanks\nGPsoft.\nTeaM FL - Dj YsB, Swaraj, Hemkumar, Sajan...","torrent":{"xt":"urn:btih:84d5d2a88648ba80a818e26b4965d2396e731646","amp;dn":"The+Raid+2+%282014%29+BDRip+720p+Dual+Audio+5.1+Ch+%5BHindi-Eng%5D+YsB+T","amp;tr":["udp%3A%2F%2Ftracker.openbittorrent.com%3A80","udp%3A%2F%2Fopen.demonii.com%3A1337","udp%3A%2F%2Ftracker.coppersurfer.tk%3A6969","udp%3A%2F%2Fexodus.desync.com%3A6969"],"infoHash":"84d5d2a88648ba80a818e26b4965d2396e731646","infoHashBuffer":{"type":"Buffer","data":[132,213,210,168,134,72,186,128,168,24,226,107,73,101,210,57,110,115,22,70]},"announce":[],"urlList":[]}}